<svg width="224" height="102" viewBox="0 0 224 102" fill="none" xmlns="http://www.w3.org/2000/svg">
<g clip-path="url(#clip0_10056_151459)">
<g clip-path="url(#clip1_10056_151459)">
<rect x="22" y="16" width="181" height="102" rx="5" fill="#F8FAFC"/>
<rect x="26.5332" y="20.5333" width="34" height="21.1556" rx="1.13333" fill="white"/>
<rect x="41.2666" y="23.5778" width="4.53333" height="4.53333" rx="1.13333" fill="#0F172A" fill-opacity="0.1"/>
<g clip-path="url(#clip2_10056_151459)">
<path d="M44.3607 24.5852H42.7079C42.6427 24.5852 42.5898 24.6381 42.5898 24.7033V24.782C42.5898 24.8472 42.6427 24.9 42.7079 24.9C42.7079 25.3475 42.9588 25.7251 43.3023 25.8445C42.9588 25.9638 42.7079 26.3415 42.7079 26.7889C42.6427 26.7889 42.5898 26.8418 42.5898 26.907V26.9857C42.5898 27.0509 42.6427 27.1037 42.7079 27.1037H44.3607C44.4259 27.1037 44.4787 27.0509 44.4787 26.9857V26.907C44.4787 26.8418 44.4259 26.7889 44.3607 26.7889C44.3607 26.3415 44.1097 25.9638 43.7663 25.8445C44.1097 25.7251 44.3607 25.3475 44.3607 24.9C44.4259 24.9 44.4787 24.8472 44.4787 24.782V24.7033C44.4787 24.6381 44.4259 24.5852 44.3607 24.5852ZM44.0459 26.7889H43.0227C43.0227 26.4079 43.25 26.0806 43.5343 26.0806C43.8185 26.0806 44.0459 26.4078 44.0459 26.7889Z" fill="#0F172A"/>
</g>
<path d="M33.0764 32.8179V32.1711H35.609V32.8179H33.0764ZM36.2458 34.2444V33.6823C36.5037 33.4687 36.7535 33.2571 36.9953 33.0476C37.2411 32.838 37.4587 32.6305 37.6481 32.425C37.8415 32.2195 37.9946 32.02 38.1075 31.8266C38.2243 31.6292 38.2827 31.4377 38.2827 31.2524C38.2827 31.0791 38.2344 30.926 38.1377 30.793C38.045 30.66 37.8899 30.5935 37.6723 30.5935C37.4506 30.5935 37.2834 30.6661 37.1706 30.8111C37.0577 30.9562 37.0013 31.1315 37.0013 31.337H36.2518C36.2599 31.0267 36.3284 30.7688 36.4573 30.5633C36.5863 30.3538 36.7575 30.1986 36.9711 30.0979C37.1847 29.9931 37.4244 29.9407 37.6904 29.9407C38.1216 29.9407 38.456 30.0596 38.6938 30.2974C38.9355 30.5311 39.0564 30.8353 39.0564 31.2101C39.0564 31.4438 39.002 31.6715 38.8932 31.8931C38.7885 32.1147 38.6494 32.3283 38.4762 32.5338C38.3029 32.7393 38.1155 32.9327 37.914 33.1141C37.7126 33.2914 37.5171 33.4566 37.3277 33.6097H39.1592V34.2444H36.2458ZM39.4752 34.9455L39.8198 33.4405H40.5693L39.983 34.9455H39.4752ZM42.5848 34.3169C42.3067 34.3169 42.0549 34.2686 41.8292 34.1719C41.6036 34.0711 41.4222 33.918 41.2852 33.7125C41.1482 33.507 41.0757 33.2491 41.0676 32.9388H41.8292C41.8333 33.1443 41.8997 33.3176 42.0287 33.4586C42.1617 33.5956 42.347 33.6641 42.5848 33.6641C42.8104 33.6641 42.9837 33.6017 43.1046 33.4767C43.2255 33.3518 43.2859 33.1947 43.2859 33.0053C43.2859 32.7836 43.2053 32.6164 43.0442 32.5036C42.887 32.3867 42.6835 32.3283 42.4337 32.3283H42.1194V31.6936H42.4397C42.6452 31.6936 42.8165 31.6453 42.9535 31.5486C43.0905 31.4519 43.159 31.3088 43.159 31.1194C43.159 30.9623 43.1066 30.8373 43.0018 30.7447C42.9011 30.6479 42.7601 30.5996 42.5787 30.5996C42.3813 30.5996 42.2261 30.658 42.1133 30.7749C42.0045 30.8917 41.9441 31.0348 41.932 31.204H41.1764C41.1925 30.8132 41.3275 30.5049 41.5814 30.2792C41.8393 30.0536 42.1717 29.9407 42.5787 29.9407C42.8689 29.9407 43.1127 29.9931 43.3101 30.0979C43.5116 30.1986 43.6627 30.3336 43.7634 30.5029C43.8682 30.6721 43.9206 30.8595 43.9206 31.065C43.9206 31.3028 43.8541 31.5042 43.7211 31.6695C43.5922 31.8306 43.431 31.9394 43.2376 31.9959C43.4753 32.0442 43.6688 32.1611 43.8178 32.3464C43.9669 32.5278 44.0415 32.7575 44.0415 33.0355C44.0415 33.2692 43.9851 33.4828 43.8722 33.6762C43.7594 33.8696 43.5942 34.0248 43.3766 34.1416C43.163 34.2585 42.8991 34.3169 42.5848 34.3169ZM45.6186 32.0926C45.4252 32.0926 45.2499 32.0503 45.0927 31.9656C44.9356 31.877 44.8106 31.7521 44.718 31.5909C44.6253 31.4297 44.5789 31.2383 44.5789 31.0167C44.5789 30.795 44.6253 30.6036 44.718 30.4424C44.8106 30.2812 44.9356 30.1583 45.0927 30.0737C45.2499 29.9851 45.4272 29.9407 45.6246 29.9407C45.818 29.9407 45.9913 29.9851 46.1444 30.0737C46.3016 30.1583 46.4265 30.2812 46.5192 30.4424C46.6119 30.6036 46.6582 30.795 46.6582 31.0167C46.6582 31.2383 46.6119 31.4297 46.5192 31.5909C46.4265 31.7521 46.3016 31.877 46.1444 31.9656C45.9873 32.0503 45.812 32.0926 45.6186 32.0926ZM45.3889 34.2444L47.7764 30.0133H48.532L46.1444 34.2444H45.3889ZM45.6186 31.5546C45.7354 31.5546 45.8362 31.5103 45.9208 31.4216C46.0054 31.3289 46.0477 31.194 46.0477 31.0167C46.0477 30.8393 46.0054 30.7044 45.9208 30.6117C45.8402 30.519 45.7395 30.4727 45.6186 30.4727C45.4977 30.4727 45.3949 30.519 45.3103 30.6117C45.2297 30.7044 45.1894 30.8393 45.1894 31.0167C45.1894 31.194 45.2297 31.3289 45.3103 31.4216C45.3949 31.5103 45.4977 31.5546 45.6186 31.5546ZM48.3265 34.3169C48.1331 34.3169 47.9578 34.2746 47.8006 34.19C47.6435 34.1013 47.5185 33.9764 47.4259 33.8152C47.3332 33.654 47.2868 33.4626 47.2868 33.241C47.2868 33.0194 47.3332 32.83 47.4259 32.6728C47.5185 32.5116 47.6435 32.3887 47.8006 32.3041C47.9578 32.2155 48.1351 32.1711 48.3325 32.1711C48.526 32.1711 48.6992 32.2155 48.8524 32.3041C49.0095 32.3887 49.1344 32.5116 49.2271 32.6728C49.3198 32.83 49.3661 33.0194 49.3661 33.241C49.3661 33.4626 49.3198 33.654 49.2271 33.8152C49.1344 33.9764 49.0095 34.1013 48.8524 34.19C48.6992 34.2746 48.5239 34.3169 48.3265 34.3169ZM48.3265 33.779C48.4474 33.779 48.5481 33.7346 48.6287 33.646C48.7133 33.5533 48.7556 33.4183 48.7556 33.241C48.7556 33.0637 48.7133 32.9287 48.6287 32.836C48.5481 32.7433 48.4474 32.697 48.3265 32.697C48.2056 32.697 48.1028 32.7433 48.0182 32.836C47.9376 32.9287 47.8973 33.0637 47.8973 33.241C47.8973 33.4183 47.9376 33.5533 48.0182 33.646C48.1028 33.7346 48.2056 33.779 48.3265 33.779Z" fill="#0F172A"/>
<path d="M51.3175 34.2897C51.0808 34.2897 50.8856 34.2318 50.732 34.1159C50.5783 34.0001 50.4902 33.8465 50.4675 33.6551H50.8717C50.8919 33.7407 50.9397 33.815 51.0153 33.8779C51.0909 33.9384 51.1903 33.9686 51.3137 33.9686C51.4346 33.9686 51.5228 33.9434 51.5782 33.8931C51.6336 33.8427 51.6613 33.7848 51.6613 33.7193C51.6613 33.6236 51.6223 33.5593 51.5442 33.5266C51.4686 33.4913 51.3629 33.4599 51.2269 33.4322C51.1211 33.4095 51.0153 33.3793 50.9095 33.3415C50.8063 33.3037 50.7194 33.2508 50.6489 33.1828C50.5809 33.1123 50.5469 33.0179 50.5469 32.8995C50.5469 32.7358 50.6098 32.5998 50.7357 32.4915C50.8617 32.3807 51.038 32.3253 51.2646 32.3253C51.4737 32.3253 51.6424 32.3756 51.7709 32.4764C51.9018 32.5771 51.9786 32.7194 52.0013 32.9033H51.616C51.6034 32.8227 51.5656 32.7597 51.5026 32.7144C51.4422 32.6691 51.3603 32.6464 51.2571 32.6464C51.1563 32.6464 51.0783 32.6678 51.0229 32.7106C50.9674 32.7509 50.9397 32.8038 50.9397 32.8693C50.9397 32.9348 50.9775 32.9864 51.0531 33.0242C51.1311 33.0619 51.2331 33.0959 51.3591 33.1262C51.485 33.1539 51.6009 33.1866 51.7066 33.2244C51.8149 33.2596 51.9018 33.3125 51.9673 33.3831C52.0328 33.4536 52.0655 33.5568 52.0655 33.6928C52.068 33.8641 52.0013 34.0064 51.8653 34.1197C51.7318 34.2331 51.5492 34.2897 51.3175 34.2897ZM53.2184 34.2444C53.0345 34.2444 52.8884 34.2003 52.7801 34.1122C52.6718 34.0215 52.6177 33.8616 52.6177 33.6324V32.7068H52.2966V32.3706H52.6177L52.6668 31.8946H53.0181V32.3706H53.547V32.7068H53.0181V33.6324C53.0181 33.7356 53.0395 33.8074 53.0824 33.8477C53.1277 33.8855 53.2045 33.9044 53.3128 33.9044H53.5281V34.2444H53.2184Z" fill="#0F172A"/>
<rect x="36.3555" y="36.3778" width="14.3556" height="2.26667" rx="1.13333" fill="#E2E8F0"/>
<rect x="62.7998" y="20.5333" width="34" height="21.1556" rx="1.13333" fill="white"/>
<rect x="77.5332" y="23.5778" width="4.53333" height="4.53333" rx="1.13333" fill="#0F172A" fill-opacity="0.1"/>
<g clip-path="url(#clip3_10056_151459)">
<path d="M80.6273 24.5852H78.9745C78.9093 24.5852 78.8564 24.6381 78.8564 24.7033V24.782C78.8564 24.8472 78.9093 24.9 78.9745 24.9C78.9745 25.3475 79.2254 25.7251 79.5689 25.8445C79.2254 25.9638 78.9745 26.3415 78.9745 26.7889C78.9093 26.7889 78.8564 26.8418 78.8564 26.907V26.9857C78.8564 27.0509 78.9093 27.1037 78.9745 27.1037H80.6273C80.6925 27.1037 80.7453 27.0509 80.7453 26.9857V26.907C80.7453 26.8418 80.6925 26.7889 80.6273 26.7889C80.6273 26.3415 80.3763 25.9638 80.0329 25.8445C80.3763 25.7251 80.6273 25.3475 80.6273 24.9C80.6925 24.9 80.7453 24.8472 80.7453 24.782V24.7033C80.7453 24.6381 80.6925 24.5852 80.6273 24.5852ZM80.3125 26.7889H79.2893C79.2893 26.4079 79.5166 26.0806 79.8009 26.0806C80.0851 26.0806 80.3125 26.4078 80.3125 26.7889Z" fill="#0F172A"/>
</g>
<path d="M74.4448 34.3169C74.1345 34.3169 73.8665 34.2625 73.6409 34.1537C73.4192 34.0449 73.2439 33.8958 73.115 33.7064C72.9901 33.513 72.9175 33.2954 72.8974 33.0536H73.653C73.6892 33.2269 73.7779 33.372 73.9189 33.4888C74.0599 33.6017 74.2352 33.6581 74.4448 33.6581C74.6704 33.6581 74.8538 33.5755 74.9948 33.4103C75.1399 33.245 75.2124 33.0395 75.2124 32.7937C75.2124 32.5399 75.1399 32.3384 74.9948 32.1893C74.8538 32.0402 74.6745 31.9656 74.4569 31.9656C74.2755 31.9656 74.1184 32.01 73.9854 32.0986C73.8524 32.1873 73.7577 32.2981 73.7013 32.4311H72.9578L73.3205 30.0133H75.6658V30.6903H73.9008L73.7074 31.6695C73.796 31.5727 73.9169 31.4942 74.07 31.4337C74.2231 31.3692 74.3944 31.337 74.5838 31.337C74.886 31.337 75.1379 31.4055 75.3394 31.5425C75.5408 31.6755 75.694 31.8528 75.7987 32.0744C75.9035 32.292 75.9559 32.5298 75.9559 32.7877C75.9559 33.0818 75.8914 33.3438 75.7625 33.5735C75.6375 33.8031 75.4602 33.9845 75.2306 34.1175C75.0049 34.2504 74.743 34.3169 74.4448 34.3169ZM78.6101 34.2444V33.4586H76.5248V32.8421L78.5074 30.0133H79.3838V32.7877H79.9399V33.4586H79.3838V34.2444H78.6101ZM77.3529 32.7877H78.6585V30.8655L77.3529 32.7877ZM81.0075 34.2444V30.8958L80.3124 31.059V30.4666L81.3339 30.0133H81.8114V34.2444H81.0075Z" fill="#0F172A"/>
<path d="M84.0841 34.2897C83.8474 34.2897 83.6522 34.2318 83.4986 34.1159C83.3449 34.0001 83.2568 33.8465 83.2341 33.6551H83.6383C83.6585 33.7407 83.7063 33.815 83.7819 33.8779C83.8575 33.9384 83.9569 33.9686 84.0803 33.9686C84.2012 33.9686 84.2894 33.9434 84.3448 33.8931C84.4002 33.8427 84.4279 33.7848 84.4279 33.7193C84.4279 33.6236 84.3889 33.5593 84.3108 33.5266C84.2352 33.4913 84.1295 33.4599 83.9935 33.4322C83.8877 33.4095 83.7819 33.3793 83.6761 33.3415C83.5729 33.3037 83.486 33.2508 83.4155 33.1828C83.3475 33.1123 83.3135 33.0179 83.3135 32.8995C83.3135 32.7358 83.3764 32.5998 83.5023 32.4915C83.6283 32.3807 83.8046 32.3253 84.0312 32.3253C84.2403 32.3253 84.409 32.3756 84.5375 32.4764C84.6684 32.5771 84.7452 32.7194 84.7679 32.9033H84.3826C84.37 32.8227 84.3322 32.7597 84.2692 32.7144C84.2088 32.6691 84.1269 32.6464 84.0237 32.6464C83.9229 32.6464 83.8449 32.6678 83.7895 32.7106C83.734 32.7509 83.7063 32.8038 83.7063 32.8693C83.7063 32.9348 83.7441 32.9864 83.8197 33.0242C83.8977 33.0619 83.9997 33.0959 84.1257 33.1262C84.2516 33.1539 84.3675 33.1866 84.4732 33.2244C84.5815 33.2596 84.6684 33.3125 84.7339 33.3831C84.7994 33.4536 84.8321 33.5568 84.8321 33.6928C84.8346 33.8641 84.7679 34.0064 84.6319 34.1197C84.4984 34.2331 84.3158 34.2897 84.0841 34.2897ZM85.985 34.2444C85.8011 34.2444 85.655 34.2003 85.5467 34.1122C85.4384 34.0215 85.3843 33.8616 85.3843 33.6324V32.7068H85.0632V32.3706H85.3843L85.4334 31.8946H85.7847V32.3706H86.3136V32.7068H85.7847V33.6324C85.7847 33.7356 85.8061 33.8074 85.849 33.8477C85.8943 33.8855 85.9711 33.9044 86.0794 33.9044H86.2947V34.2444H85.985Z" fill="#0F172A"/>
<rect x="72.6221" y="36.3778" width="14.3556" height="2.26667" rx="1.13333" fill="#E2E8F0"/>
<rect x="99.0664" y="20.5333" width="34" height="21.1556" rx="1.13333" fill="white"/>
<rect x="113.8" y="23.5778" width="4.53333" height="4.53333" rx="1.13333" fill="#0F172A" fill-opacity="0.1"/>
<g clip-path="url(#clip4_10056_151459)">
<path d="M116.894 24.5852H115.241C115.176 24.5852 115.123 24.6381 115.123 24.7033V24.782C115.123 24.8472 115.176 24.9 115.241 24.9C115.241 25.3475 115.492 25.7251 115.836 25.8445C115.492 25.9638 115.241 26.3415 115.241 26.7889C115.176 26.7889 115.123 26.8418 115.123 26.907V26.9857C115.123 27.0509 115.176 27.1037 115.241 27.1037H116.894C116.959 27.1037 117.012 27.0509 117.012 26.9857V26.907C117.012 26.8418 116.959 26.7889 116.894 26.7889C116.894 26.3415 116.643 25.9638 116.299 25.8445C116.643 25.7251 116.894 25.3475 116.894 24.9C116.959 24.9 117.012 24.8472 117.012 24.782V24.7033C117.012 24.6381 116.959 24.5852 116.894 24.5852ZM116.579 26.7889H115.556C115.556 26.4079 115.783 26.0806 116.067 26.0806C116.352 26.0806 116.579 26.4078 116.579 26.7889Z" fill="#0F172A"/>
</g>
<path d="M109.154 34.2444V30.8958L108.458 31.059V30.4666L109.48 30.0133H109.958V34.2444H109.154ZM111.092 34.2867C110.951 34.2867 110.834 34.2424 110.742 34.1537C110.653 34.0651 110.609 33.9583 110.609 33.8334C110.609 33.7044 110.653 33.5956 110.742 33.507C110.834 33.4183 110.951 33.374 111.092 33.374C111.233 33.374 111.348 33.4183 111.437 33.507C111.529 33.5956 111.576 33.7044 111.576 33.8334C111.576 33.9583 111.529 34.0651 111.437 34.1537C111.348 34.2424 111.233 34.2867 111.092 34.2867ZM113.723 34.3169C113.433 34.3169 113.171 34.2665 112.937 34.1658C112.703 34.061 112.516 33.914 112.375 33.7246C112.238 33.5352 112.17 33.3156 112.17 33.0657C112.17 32.8078 112.236 32.5822 112.369 32.3887C112.506 32.1953 112.685 32.0563 112.907 31.9717C112.714 31.8871 112.56 31.7662 112.448 31.609C112.335 31.4478 112.278 31.2685 112.278 31.0711C112.278 30.8696 112.333 30.6842 112.442 30.515C112.55 30.3417 112.712 30.2027 112.925 30.0979C113.143 29.9931 113.409 29.9407 113.723 29.9407C114.037 29.9407 114.301 29.9931 114.515 30.0979C114.728 30.2027 114.89 30.3417 114.998 30.515C115.107 30.6842 115.162 30.8696 115.162 31.0711C115.162 31.2645 115.103 31.4438 114.986 31.609C114.873 31.7702 114.722 31.8911 114.533 31.9717C114.759 32.0563 114.938 32.1953 115.071 32.3887C115.204 32.5822 115.27 32.8078 115.27 33.0657C115.27 33.3156 115.202 33.5352 115.065 33.7246C114.928 33.914 114.74 34.061 114.503 34.1658C114.269 34.2665 114.009 34.3169 113.723 34.3169ZM113.723 31.742C113.933 31.742 114.098 31.6876 114.219 31.5788C114.34 31.47 114.4 31.331 114.4 31.1617C114.4 30.9764 114.34 30.8313 114.219 30.7265C114.102 30.6217 113.937 30.5694 113.723 30.5694C113.505 30.5694 113.338 30.6217 113.221 30.7265C113.104 30.8313 113.046 30.9764 113.046 31.1617C113.046 31.335 113.104 31.476 113.221 31.5848C113.342 31.6896 113.509 31.742 113.723 31.742ZM113.723 33.6702C113.981 33.6702 114.176 33.6077 114.309 33.4828C114.442 33.3538 114.509 33.1927 114.509 32.9992C114.509 32.7857 114.438 32.6184 114.297 32.4975C114.16 32.3767 113.969 32.3162 113.723 32.3162C113.477 32.3162 113.282 32.3767 113.137 32.4975C112.996 32.6184 112.925 32.7857 112.925 32.9992C112.925 33.1927 112.992 33.3538 113.125 33.4828C113.262 33.6077 113.461 33.6702 113.723 33.6702ZM116.013 34.2444V29.8924H116.787V32.4613L117.851 31.2463H118.77L117.542 32.6124L118.969 34.2444H118.002L116.787 32.7393V34.2444H116.013Z" fill="#0F172A"/>
<path d="M120.851 34.2897C120.614 34.2897 120.419 34.2318 120.265 34.1159C120.112 34.0001 120.023 33.8465 120.001 33.6551H120.405C120.425 33.7407 120.473 33.815 120.548 33.8779C120.624 33.9384 120.724 33.9686 120.847 33.9686C120.968 33.9686 121.056 33.9434 121.111 33.8931C121.167 33.8427 121.194 33.7848 121.194 33.7193C121.194 33.6236 121.155 33.5593 121.077 33.5266C121.002 33.4913 120.896 33.4599 120.76 33.4322C120.654 33.4095 120.548 33.3793 120.443 33.3415C120.339 33.3037 120.253 33.2508 120.182 33.1828C120.114 33.1123 120.08 33.0179 120.08 32.8995C120.08 32.7358 120.143 32.5998 120.269 32.4915C120.395 32.3807 120.571 32.3253 120.798 32.3253C121.007 32.3253 121.176 32.3756 121.304 32.4764C121.435 32.5771 121.512 32.7194 121.534 32.9033H121.149C121.137 32.8227 121.099 32.7597 121.036 32.7144C120.975 32.6691 120.894 32.6464 120.79 32.6464C120.69 32.6464 120.611 32.6678 120.556 32.7106C120.501 32.7509 120.473 32.8038 120.473 32.8693C120.473 32.9348 120.511 32.9864 120.586 33.0242C120.664 33.0619 120.766 33.0959 120.892 33.1262C121.018 33.1539 121.134 33.1866 121.24 33.2244C121.348 33.2596 121.435 33.3125 121.5 33.3831C121.566 33.4536 121.599 33.5568 121.599 33.6928C121.601 33.8641 121.534 34.0064 121.398 34.1197C121.265 34.2331 121.082 34.2897 120.851 34.2897ZM122.752 34.2444C122.568 34.2444 122.422 34.2003 122.313 34.1122C122.205 34.0215 122.151 33.8616 122.151 33.6324V32.7068H121.83V32.3706H122.151L122.2 31.8946H122.551V32.3706H123.08V32.7068H122.551V33.6324C122.551 33.7356 122.573 33.8074 122.616 33.8477C122.661 33.8855 122.738 33.9044 122.846 33.9044H123.061V34.2444H122.752Z" fill="#0F172A"/>
<rect x="108.889" y="36.3778" width="14.3556" height="2.26667" rx="1.13333" fill="#E2E8F0"/>
<rect x="135.333" y="20.5333" width="34" height="21.1556" rx="1.13333" fill="white"/>
<rect x="150.066" y="23.5778" width="4.53333" height="4.53333" rx="1.13333" fill="#0F172A" fill-opacity="0.1"/>
<g clip-path="url(#clip5_10056_151459)">
<path d="M153.16 24.5852H151.508C151.443 24.5852 151.39 24.6381 151.39 24.7033V24.782C151.39 24.8472 151.443 24.9 151.508 24.9C151.508 25.3475 151.759 25.7251 152.102 25.8445C151.759 25.9638 151.508 26.3415 151.508 26.7889C151.443 26.7889 151.39 26.8418 151.39 26.907V26.9857C151.39 27.0509 151.443 27.1037 151.508 27.1037H153.16C153.226 27.1037 153.279 27.0509 153.279 26.9857V26.907C153.279 26.8418 153.226 26.7889 153.16 26.7889C153.16 26.3415 152.91 25.9638 152.566 25.8445C152.91 25.7251 153.16 25.3475 153.16 24.9C153.226 24.9 153.279 24.8472 153.279 24.782V24.7033C153.279 24.6381 153.226 24.5852 153.16 24.5852ZM152.846 26.7889H151.823C151.823 26.4079 152.05 26.0806 152.334 26.0806C152.618 26.0806 152.846 26.4078 152.846 26.7889Z" fill="#0F172A"/>
</g>
<path d="M144.203 34.2444L145.798 30.6721H143.713V30.0133H146.596V30.5633L145.007 34.2444H144.203ZM148.703 34.3169C148.384 34.3169 148.116 34.2585 147.899 34.1416C147.681 34.0248 147.506 33.8676 147.373 33.6702C147.24 33.4727 147.143 33.2531 147.083 33.0113C147.026 32.7695 146.998 32.5217 146.998 32.2679C146.998 31.7964 147.065 31.3874 147.198 31.0408C147.331 30.6903 147.522 30.4203 147.772 30.2309C148.022 30.0375 148.324 29.9407 148.678 29.9407C148.969 29.9407 149.214 29.9992 149.416 30.116C149.621 30.2289 149.781 30.378 149.893 30.5633C150.006 30.7487 150.073 30.9481 150.093 31.1617H149.374C149.337 30.9764 149.259 30.8333 149.138 30.7326C149.017 30.6318 148.862 30.5815 148.672 30.5815C148.402 30.5815 148.185 30.7064 148.02 30.9562C147.854 31.202 147.766 31.5788 147.754 32.0865C147.85 31.9213 147.995 31.7843 148.189 31.6755C148.382 31.5667 148.598 31.5123 148.836 31.5123C149.069 31.5123 149.289 31.5687 149.494 31.6815C149.7 31.7944 149.865 31.9535 149.99 32.1591C150.119 32.3646 150.183 32.6063 150.183 32.8844C150.183 33.1383 150.121 33.374 149.996 33.5916C149.875 33.8092 149.702 33.9845 149.476 34.1175C149.255 34.2504 148.997 34.3169 148.703 34.3169ZM148.66 33.652C148.886 33.652 149.071 33.5835 149.216 33.4465C149.365 33.3055 149.44 33.1282 149.44 32.9146C149.44 32.6889 149.365 32.5076 149.216 32.3706C149.067 32.2336 148.878 32.1651 148.648 32.1651C148.499 32.1651 148.364 32.1993 148.243 32.2679C148.126 32.3323 148.034 32.421 147.965 32.5338C147.897 32.6426 147.862 32.7655 147.862 32.9025C147.862 33.1201 147.937 33.2994 148.086 33.4405C148.239 33.5815 148.431 33.652 148.66 33.652ZM151.761 32.0926C151.568 32.0926 151.392 32.0503 151.235 31.9656C151.078 31.877 150.953 31.7521 150.86 31.5909C150.768 31.4297 150.721 31.2383 150.721 31.0167C150.721 30.795 150.768 30.6036 150.86 30.4424C150.953 30.2812 151.078 30.1583 151.235 30.0737C151.392 29.9851 151.57 29.9407 151.767 29.9407C151.961 29.9407 152.134 29.9851 152.287 30.0737C152.444 30.1583 152.569 30.2812 152.662 30.4424C152.754 30.6036 152.801 30.795 152.801 31.0167C152.801 31.2383 152.754 31.4297 152.662 31.5909C152.569 31.7521 152.444 31.877 152.287 31.9656C152.13 32.0503 151.955 32.0926 151.761 32.0926ZM151.531 34.2444L153.919 30.0133H154.675L152.287 34.2444H151.531ZM151.761 31.5546C151.878 31.5546 151.979 31.5103 152.063 31.4216C152.148 31.3289 152.19 31.194 152.19 31.0167C152.19 30.8393 152.148 30.7044 152.063 30.6117C151.983 30.519 151.882 30.4727 151.761 30.4727C151.64 30.4727 151.537 30.519 151.453 30.6117C151.372 30.7044 151.332 30.8393 151.332 31.0167C151.332 31.194 151.372 31.3289 151.453 31.4216C151.537 31.5103 151.64 31.5546 151.761 31.5546ZM154.469 34.3169C154.276 34.3169 154.1 34.2746 153.943 34.19C153.786 34.1013 153.661 33.9764 153.568 33.8152C153.476 33.654 153.429 33.4626 153.429 33.241C153.429 33.0194 153.476 32.83 153.568 32.6728C153.661 32.5116 153.786 32.3887 153.943 32.3041C154.1 32.2155 154.278 32.1711 154.475 32.1711C154.668 32.1711 154.842 32.2155 154.995 32.3041C155.152 32.3887 155.277 32.5116 155.37 32.6728C155.462 32.83 155.509 33.0194 155.509 33.241C155.509 33.4626 155.462 33.654 155.37 33.8152C155.277 33.9764 155.152 34.1013 154.995 34.19C154.842 34.2746 154.666 34.3169 154.469 34.3169ZM154.469 33.779C154.59 33.779 154.691 33.7346 154.771 33.646C154.856 33.5533 154.898 33.4183 154.898 33.241C154.898 33.0637 154.856 32.9287 154.771 32.836C154.691 32.7433 154.59 32.697 154.469 32.697C154.348 32.697 154.245 32.7433 154.161 32.836C154.08 32.9287 154.04 33.0637 154.04 33.241C154.04 33.4183 154.08 33.5533 154.161 33.646C154.245 33.7346 154.348 33.779 154.469 33.779Z" fill="#0F172A"/>
<path d="M158.117 34.2897C157.881 34.2897 157.685 34.2318 157.532 34.1159C157.378 34.0001 157.29 33.8465 157.267 33.6551H157.672C157.692 33.7407 157.74 33.815 157.815 33.8779C157.891 33.9384 157.99 33.9686 158.114 33.9686C158.234 33.9686 158.323 33.9434 158.378 33.8931C158.433 33.8427 158.461 33.7848 158.461 33.7193C158.461 33.6236 158.422 33.5593 158.344 33.5266C158.268 33.4913 158.163 33.4599 158.027 33.4322C157.921 33.4095 157.815 33.3793 157.709 33.3415C157.606 33.3037 157.519 33.2508 157.449 33.1828C157.381 33.1123 157.347 33.0179 157.347 32.8995C157.347 32.7358 157.41 32.5998 157.536 32.4915C157.661 32.3807 157.838 32.3253 158.064 32.3253C158.273 32.3253 158.442 32.3756 158.571 32.4764C158.702 32.5771 158.778 32.7194 158.801 32.9033H158.416C158.403 32.8227 158.365 32.7597 158.302 32.7144C158.242 32.6691 158.16 32.6464 158.057 32.6464C157.956 32.6464 157.878 32.6678 157.823 32.7106C157.767 32.7509 157.74 32.8038 157.74 32.8693C157.74 32.9348 157.777 32.9864 157.853 33.0242C157.931 33.0619 158.033 33.0959 158.159 33.1262C158.285 33.1539 158.401 33.1866 158.506 33.2244C158.615 33.2596 158.702 33.3125 158.767 33.3831C158.833 33.4536 158.865 33.5568 158.865 33.6928C158.868 33.8641 158.801 34.0064 158.665 34.1197C158.532 34.2331 158.349 34.2897 158.117 34.2897ZM160.018 34.2444C159.834 34.2444 159.688 34.2003 159.58 34.1122C159.472 34.0215 159.417 33.8616 159.417 33.6324V32.7068H159.096V32.3706H159.417L159.467 31.8946H159.818V32.3706H160.347V32.7068H159.818V33.6324C159.818 33.7356 159.839 33.8074 159.882 33.8477C159.927 33.8855 160.004 33.9044 160.113 33.9044H160.328V34.2444H160.018Z" fill="#0F172A"/>
<rect x="145.155" y="36.3778" width="14.3556" height="2.26667" rx="1.13333" fill="#E2E8F0"/>
<rect x="26.5332" y="44.3334" width="70.2667" height="45.3333" rx="1.13333" fill="white"/>
<rect x="54.4883" y="51.1334" width="14.3556" height="2.26667" rx="1.13333" fill="#E2E8F0"/>
<g clip-path="url(#clip6_10056_151459)">
<path d="M33.7109 80.8333C33.7109 80.2074 34.2183 79.7 34.8443 79.7H37.1109C37.7369 79.7 38.2443 80.2074 38.2443 80.8333V82.5333H33.7109V80.8333Z" fill="#3B82F6"/>
</g>
<g clip-path="url(#clip7_10056_151459)">
<path d="M40.1328 61.1667C40.1328 60.5407 40.6402 60.0333 41.2661 60.0333H43.5328C44.1587 60.0333 44.6661 60.5407 44.6661 61.1667V82.7H40.1328V61.1667Z" fill="#3B82F6"/>
</g>
<g clip-path="url(#clip8_10056_151459)">
<path d="M46.5557 69.6667C46.5557 69.0407 47.0631 68.5333 47.689 68.5333H49.9557C50.5816 68.5333 51.089 69.0407 51.089 69.6667V82.7H46.5557V69.6667Z" fill="#3B82F6"/>
</g>
<g clip-path="url(#clip9_10056_151459)">
<path d="M52.9775 78.1667C52.9775 77.5407 53.4849 77.0333 54.1109 77.0333H56.3775C57.0035 77.0333 57.5109 77.5407 57.5109 78.1667V82.7H52.9775V78.1667Z" fill="#3B82F6"/>
</g>
<g clip-path="url(#clip10_10056_151459)">
<path d="M59.3994 75.3333C59.3994 74.7074 59.9068 74.2 60.5327 74.2H62.7994C63.4253 74.2 63.9327 74.7074 63.9327 75.3333V82.7H59.3994V75.3333Z" fill="#3B82F6"/>
</g>
<g clip-path="url(#clip11_10056_151459)">
<path d="M65.8223 66.8333C65.8223 66.2074 66.3297 65.7 66.9556 65.7H69.2223C69.8482 65.7 70.3556 66.2074 70.3556 66.8333V82.6999H65.8223V66.8333Z" fill="#3B82F6"/>
</g>
<g clip-path="url(#clip12_10056_151459)">
<path d="M72.2441 72.5C72.2441 71.8741 72.7516 71.3667 73.3775 71.3667H75.6441C76.2701 71.3667 76.7775 71.8741 76.7775 72.5V82.7H72.2441V72.5Z" fill="#3B82F6"/>
</g>
<g clip-path="url(#clip13_10056_151459)">
<path d="M78.666 58.3333C78.666 57.7074 79.1734 57.2 79.7993 57.2H82.066C82.6919 57.2 83.1993 57.7074 83.1993 58.3333V82.6999H78.666V58.3333Z" fill="#3B82F6"/>
</g>
<g clip-path="url(#clip14_10056_151459)">
<path d="M85.0889 55.5C85.0889 54.8741 85.5963 54.3667 86.2222 54.3667H88.4889C89.1148 54.3667 89.6222 54.8741 89.6222 55.5V82.7H85.0889V55.5Z" fill="#3B82F6"/>
</g>
<rect x="99.0664" y="44.3334" width="70.2667" height="45.3333" rx="1.13333" fill="white"/>
<rect width="61.9556" height="4.53333" transform="translate(103.222 48.8667)" fill="#F8FAFC"/>
<rect x="104.355" y="50" width="14.3556" height="2.26667" rx="1.13333" fill="#3B82F6"/>
<rect x="120.978" y="50" width="43.0667" height="2.26667" rx="1.13333" fill="#E2E8F0"/>
<rect width="61.9556" height="4.53333" transform="translate(103.222 54.1556)" fill="#F8FAFC"/>
<rect x="104.355" y="55.2889" width="14.3556" height="2.26667" rx="1.13333" fill="#3B82F6"/>
<rect x="120.978" y="55.2889" width="43.0667" height="2.26667" rx="1.13333" fill="#E2E8F0"/>
<rect width="61.9556" height="4.53333" transform="translate(103.222 59.4445)" fill="#F8FAFC"/>
<rect x="104.355" y="60.5778" width="14.3556" height="2.26667" rx="1.13333" fill="#3B82F6"/>
<rect x="120.978" y="60.5778" width="43.0667" height="2.26667" rx="1.13333" fill="#E2E8F0"/>
<rect width="61.9556" height="4.53333" transform="translate(103.222 64.7334)" fill="#F8FAFC"/>
<rect x="104.355" y="65.8667" width="14.3556" height="2.26667" rx="1.13333" fill="#3B82F6"/>
<rect x="120.978" y="65.8667" width="43.0667" height="2.26667" rx="1.13333" fill="#E2E8F0"/>
<rect width="61.9556" height="4.53333" transform="translate(103.222 70.0222)" fill="#F8FAFC"/>
<rect x="104.355" y="71.1555" width="14.3556" height="2.26667" rx="1.13333" fill="#3B82F6"/>
<rect x="120.978" y="71.1555" width="43.0667" height="2.26667" rx="1.13333" fill="#E2E8F0"/>
<rect width="61.9556" height="4.53333" transform="translate(103.222 75.3112)" fill="#F8FAFC"/>
<rect x="104.355" y="76.4445" width="14.3556" height="2.26667" rx="1.13333" fill="#3B82F6"/>
<rect x="120.978" y="76.4445" width="43.0667" height="2.26667" rx="1.13333" fill="#E2E8F0"/>
<rect width="61.9556" height="4.53333" transform="translate(103.222 80.6001)" fill="#F8FAFC"/>
<rect x="104.355" y="81.7334" width="14.3556" height="2.26667" rx="1.13333" fill="#3B82F6"/>
<rect x="120.978" y="81.7334" width="43.0667" height="2.26667" rx="1.13333" fill="#E2E8F0"/>
<rect x="26.5332" y="92.3112" width="46.0889" height="42.5944" rx="1.13333" fill="white"/>
<rect x="42.3994" y="98.1195" width="14.3556" height="2.26667" rx="1.13333" fill="#E2E8F0"/>
<rect x="74.8887" y="92.3112" width="46.0889" height="42.5944" rx="1.13333" fill="white"/>
<rect x="90.7549" y="98.1195" width="14.3556" height="2.26667" rx="1.13333" fill="#E2E8F0"/>
<rect x="123.48" y="92.5473" width="45.6167" height="42.1222" rx="0.897222" stroke="#E2E8F0" stroke-width="0.472222"/>
<rect width="29" height="102" transform="translate(174 16)" fill="white"/>
<rect x="178.533" y="20.5332" width="14.3556" height="2.26667" rx="1.13333" fill="#E2E8F0"/>
<rect width="20.4" height="4.53333" transform="translate(178.533 25.0667)" fill="#F8FAFC"/>
<g clip-path="url(#clip15_10056_151459)">
<path d="M195.46 27.876L194.619 27.0354C194.579 26.9949 194.579 26.9291 194.619 26.8886L194.717 26.7905C194.758 26.7501 194.823 26.75 194.864 26.7904L195.533 27.4566L196.203 26.7904C196.243 26.75 196.309 26.7501 196.349 26.7905L196.447 26.8886C196.488 26.9291 196.488 26.9949 196.447 27.0354L195.607 27.876C195.566 27.9166 195.5 27.9166 195.46 27.876Z" fill="#64748B"/>
</g>
<rect width="20.4" height="4.53333" transform="translate(178.533 31.8667)" fill="#F8FAFC"/>
<g clip-path="url(#clip16_10056_151459)">
<path d="M195.46 34.6761L194.619 33.8354C194.579 33.7949 194.579 33.7292 194.619 33.6886L194.717 33.5906C194.758 33.5501 194.823 33.55 194.864 33.5904L195.533 34.2566L196.203 33.5904C196.243 33.55 196.309 33.5501 196.349 33.5906L196.447 33.6886C196.488 33.7292 196.488 33.7949 196.447 33.8354L195.607 34.6761C195.566 34.7166 195.5 34.7166 195.46 34.6761Z" fill="#64748B"/>
</g>
<rect x="178.533" y="40.6971" width="9.44444" height="0.472222" fill="#22C55E"/>
<circle cx="188.733" cy="40.9333" r="0.755556" fill="#22C55E"/>
<rect x="189.488" y="40.6971" width="9.44444" height="0.472222" fill="#E2E8F0"/>
<rect x="178.533" y="47.4972" width="9.44444" height="0.472222" fill="#22C55E"/>
<circle cx="188.733" cy="47.7333" r="0.755556" fill="#22C55E"/>
<rect x="189.488" y="47.4972" width="9.44444" height="0.472222" fill="#E2E8F0"/>
<rect width="20.4" height="4.53333" transform="translate(178.533 52.2667)" fill="#F8FAFC"/>
<g clip-path="url(#clip17_10056_151459)">
<path d="M195.46 55.0761L194.619 54.2355C194.579 54.1949 194.579 54.1292 194.619 54.0887L194.717 53.9906C194.758 53.9501 194.823 53.9501 194.864 53.9904L195.533 54.6567L196.203 53.9904C196.243 53.9501 196.309 53.9501 196.349 53.9906L196.447 54.0887C196.488 54.1292 196.488 54.1949 196.447 54.2355L195.607 55.0761C195.566 55.1166 195.5 55.1166 195.46 55.0761Z" fill="#64748B"/>
</g>
</g>
<path d="M203 77H22V102H203V77Z" fill="url(#paint0_linear_10056_151459)" fill-opacity="0.25"/>
<path d="M224 102L203 20V102H224Z" fill="url(#paint1_linear_10056_151459)" fill-opacity="0.25"/>
</g>
<defs>
<linearGradient id="paint0_linear_10056_151459" x1="112.5" y1="77" x2="112.5" y2="102" gradientUnits="userSpaceOnUse">
<stop stop-color="#0F172A" stop-opacity="0"/>
<stop offset="1" stop-color="#0F172A"/>
</linearGradient>
<linearGradient id="paint1_linear_10056_151459" x1="174.5" y1="15.5" x2="222.998" y2="88.1606" gradientUnits="userSpaceOnUse">
<stop stop-color="#0F172A"/>
<stop offset="1" stop-color="#0F172A" stop-opacity="0"/>
</linearGradient>
<clipPath id="clip0_10056_151459">
<rect width="224" height="102" fill="white"/>
</clipPath>
<clipPath id="clip1_10056_151459">
<rect x="22" y="16" width="181" height="102" rx="5" fill="white"/>
</clipPath>
<clipPath id="clip2_10056_151459">
<rect width="3.02222" height="3.02222" fill="white" transform="translate(42.0225 24.3334)"/>
</clipPath>
<clipPath id="clip3_10056_151459">
<rect width="3.02222" height="3.02222" fill="white" transform="translate(78.2891 24.3334)"/>
</clipPath>
<clipPath id="clip4_10056_151459">
<rect width="3.02222" height="3.02222" fill="white" transform="translate(114.556 24.3334)"/>
</clipPath>
<clipPath id="clip5_10056_151459">
<rect width="3.02222" height="3.02222" fill="white" transform="translate(150.822 24.3334)"/>
</clipPath>
<clipPath id="clip6_10056_151459">
<rect width="4.53333" height="28.3333" fill="white" transform="translate(33.7109 54.5333)"/>
</clipPath>
<clipPath id="clip7_10056_151459">
<rect width="4.53333" height="28.3333" fill="white" transform="translate(40.1328 54.5333)"/>
</clipPath>
<clipPath id="clip8_10056_151459">
<rect width="4.53333" height="28.3333" fill="white" transform="translate(46.5557 54.5333)"/>
</clipPath>
<clipPath id="clip9_10056_151459">
<rect width="4.53333" height="28.3333" fill="white" transform="translate(52.9775 54.5333)"/>
</clipPath>
<clipPath id="clip10_10056_151459">
<rect width="4.53333" height="28.3333" fill="white" transform="translate(59.3994 54.5333)"/>
</clipPath>
<clipPath id="clip11_10056_151459">
<rect width="4.53333" height="28.3333" fill="white" transform="translate(65.8223 54.5333)"/>
</clipPath>
<clipPath id="clip12_10056_151459">
<rect width="4.53333" height="28.3333" fill="white" transform="translate(72.2441 54.5333)"/>
</clipPath>
<clipPath id="clip13_10056_151459">
<rect width="4.53333" height="28.3333" fill="white" transform="translate(78.666 54.5333)"/>
</clipPath>
<clipPath id="clip14_10056_151459">
<rect width="4.53333" height="28.3333" fill="white" transform="translate(85.0889 54.5333)"/>
</clipPath>
<clipPath id="clip15_10056_151459">
<rect width="2.26667" height="2.26667" fill="white" transform="translate(194.399 26.2)"/>
</clipPath>
<clipPath id="clip16_10056_151459">
<rect width="2.26667" height="2.26667" fill="white" transform="translate(194.399 33)"/>
</clipPath>
<clipPath id="clip17_10056_151459">
<rect width="2.26667" height="2.26667" fill="white" transform="translate(194.399 53.4)"/>
</clipPath>
</defs>
</svg>
